<svg xmlns="http://www.w3.org/2000/svg" width="471" height="445">
<defs>
</defs>
<path d="M0.074635,445.002 C0.074635,445.002 0.0746346,-0.00218371 0.0746346,-0.00218371 C0.0746346,-0.00218371 471.012,0.0643013 471.012,0.0643013 C471.012,0.0643013 471.012,444.936 471.012,444.936 C471.012,444.936 0.074635,445.002 0.074635,445.002 Z M1.1324,87.9136 C1.1324,87.9136 1.16938,195.855 1.16938,195.855 C1.16938,195.855 15.0792,209.008 15.0792,209.008 C15.0792,209.008 32.6024,227.195 32.6024,227.195 C32.6024,227.195 0.992302,258.712 0.992302,258.712 C0.992302,258.712 1.00481,359.725 1.00481,359.725 C1.00481,359.725 2.87637,360.295 2.87637,360.295 C2.87637,360.295 187.785,442.078 187.785,442.078 C190.495,443.315 192.156,444.473 194.783,443.851 C194.783,443.851 235.12,403.656 235.12,403.656 C235.12,403.656 275.902,444.462 275.902,444.462 C275.902,444.462 355.814,409.715 355.814,409.715 C355.814,409.715 470.027,359.238 470.027,359.238 C470.027,359.238 469.985,280.166 469.985,280.166 C469.985,280.166 383.194,241.935 383.194,241.935 C383.194,241.935 382.924,306.665 382.924,306.665 C382.924,306.665 280.067,352.541 280.067,352.541 C280.067,352.541 279.95,260.301 279.95,260.301 C279.95,260.301 245.913,227.419 245.913,227.419 C245.913,227.419 280.026,193.602 280.026,193.602 C280.026,193.602 279.985,94.819 279.985,94.819 C279.985,94.819 382.743,140.414 382.743,140.414 C382.743,140.414 383.077,211.311 383.077,211.311 C383.077,211.311 435.883,187.868 435.883,187.868 C435.883,187.868 470.024,173.075 470.024,173.075 C470.024,173.075 469.919,87.7265 469.919,87.7265 C469.919,87.7265 428.783,69.1393 428.783,69.1393 C428.783,69.1393 275.651,1.7713 275.651,1.7713 C275.651,1.7713 235.003,42.4174 235.003,42.4174 C235.003,42.4174 194.303,1.93205 194.303,1.93205 C194.303,1.93205 14.5931,81.4335 14.5931,81.4335 C14.5931,81.4335 1.1324,87.9136 1.1324,87.9136 Z " fill="rgb(254,255,255)"/>
<path d="M2.87637,360.295 C3.06675,359.696 2.97908,359.027 1.99864,358.67 C1.99864,358.67 2.01015,260.086 2.01015,260.086 C2.01027,259.085 1.49873,258.907 0.992302,258.712 C0.992302,258.712 32.6024,227.195 32.6024,227.195 C32.6024,227.195 15.0792,209.008 15.0792,209.008 C10.8268,204.595 7.6861,198.55 1.16938,195.855 C1.16938,195.855 1.1324,87.9136 1.1324,87.9136 C1.1324,87.9136 14.5931,81.4335 14.5931,81.4335 C14.5931,81.4335 194.303,1.93205 194.303,1.93205 C194.303,1.93205 235.003,42.4174 235.003,42.4174 C235.003,42.4174 275.651,1.7713 275.651,1.7713 C275.651,1.7713 428.783,69.1393 428.783,69.1393 C428.783,69.1393 469.919,87.7265 469.919,87.7265 C469.919,87.7265 470.024,173.075 470.024,173.075 C470.024,173.075 435.883,187.868 435.883,187.868 C435.883,187.868 383.077,211.311 383.077,211.311 C383.077,211.311 382.743,140.414 382.743,140.414 C382.743,140.414 279.985,94.819 279.985,94.819 C279.985,94.819 280.026,193.602 280.026,193.602 C280.026,193.602 245.913,227.419 245.913,227.419 C245.913,227.419 279.95,260.301 279.95,260.301 C279.95,260.301 280.067,352.541 280.067,352.541 C280.067,352.541 382.924,306.665 382.924,306.665 C382.924,306.665 383.194,241.935 383.194,241.935 C383.194,241.935 469.985,280.166 469.985,280.166 C469.985,280.166 470.027,359.238 470.027,359.238 C470.027,359.238 355.814,409.715 355.814,409.715 C355.814,409.715 275.902,444.462 275.902,444.462 C275.902,444.462 235.12,403.656 235.12,403.656 C235.12,403.656 194.783,443.851 194.783,443.851 C192.156,444.473 190.495,443.315 187.785,442.078 C187.785,442.078 2.87637,360.295 2.87637,360.295 Z M88.4069,182.831 C88.4069,182.831 191.641,183.017 191.641,183.017 C191.972,182.783 192.816,181.735 192.962,181.493 C193.099,181.267 192.601,180.859 192.269,180.925 C192.269,180.925 192.163,94.7826 192.163,94.7826 C192.163,94.7826 88.0863,140.822 88.0863,140.822 C88.0863,140.822 88.4069,182.831 88.4069,182.831 Z M95.9829,310.187 C95.9829,310.187 192.251,352.411 192.251,352.411 C192.251,352.411 192.251,266.15 192.251,266.15 C192.624,266.229 193.148,265.713 192.967,265.505 C192.967,265.505 191.655,264.002 191.655,264.002 C191.655,264.002 87.1588,264.063 87.1588,264.063 C87.1588,264.063 86.9795,306.844 86.9795,306.844 C86.9795,306.844 95.0038,311.151 95.0038,311.151 C95.9267,311.064 96.1136,310.416 95.9829,310.187 Z " fill="rgb(4,100,254)"/>
<path d="M2.87637,360.295 C2.87637,360.295 1.00481,359.725 1.00481,359.725 C1.00481,359.725 0.992302,258.712 0.992302,258.712 C1.49873,258.907 2.01027,259.085 2.01015,260.086 C2.01015,260.086 1.99864,358.67 1.99864,358.67 C2.97908,359.027 3.06675,359.696 2.87637,360.295 Z " fill="rgb(7,56,197)"/>
<path d="M1.16938,195.855 C1.16938,195.855 1.1324,87.9136 1.1324,87.9136 C1.1324,87.9136 1.16938,195.855 1.16938,195.855 Z " fill="rgb(7,60,204)"/>
<path d="M15.0792,209.008 C15.0792,209.008 1.16938,195.855 1.16938,195.855 C7.6861,198.55 10.8268,204.595 15.0792,209.008 Z " fill="rgb(7,60,204)"/>
<path d="M192.251,266.15 C192.251,266.15 192.251,352.411 192.251,352.411 C192.251,352.411 95.9829,310.187 95.9829,310.187 C95.9829,310.187 88.0087,306.618 88.0087,306.618 C88.0087,306.618 88.0126,264.995 88.0126,264.995 C88.0126,264.995 191.711,265.025 191.711,265.025 C192.082,265.026 192.371,265.898 192.251,266.15 Z " fill="rgb(255,255,255)"/>
<path d="M192.269,180.925 C192.185,181.296 191.925,182.12 190.92,182.002 C190.92,182.002 88.4069,182.831 88.4069,182.831 C88.4069,182.831 88.0863,140.822 88.0863,140.822 C88.0863,140.822 192.163,94.7826 192.163,94.7826 C192.163,94.7826 192.269,180.925 192.269,180.925 Z " fill="rgb(255,255,255)"/>
<path d="M88.4069,182.831 C88.4069,182.831 190.92,182.002 190.92,182.002 C191.925,182.12 192.185,181.296 192.269,180.925 C192.601,180.859 193.099,181.267 192.962,181.493 C192.816,181.735 191.972,182.783 191.641,183.017 C191.641,183.017 88.4069,182.831 88.4069,182.831 Z " fill="rgb(25,56,176)"/>
<path d="M192.251,266.15 C192.371,265.898 192.082,265.026 191.711,265.025 C191.711,265.025 88.0126,264.995 88.0126,264.995 C88.0126,264.995 88.0087,306.618 88.0087,306.618 C88.0087,306.618 95.9829,310.187 95.9829,310.187 C96.1136,310.416 95.9267,311.064 95.0038,311.151 C95.0038,311.151 86.9795,306.844 86.9795,306.844 C86.9795,306.844 87.1588,264.063 87.1588,264.063 C87.1588,264.063 191.655,264.002 191.655,264.002 C191.655,264.002 192.967,265.505 192.967,265.505 C193.148,265.713 192.624,266.229 192.251,266.15 Z " fill="rgb(10,57,190)"/>
</svg>