<?xml version="1.0" encoding="utf-8"?>
<svg width="469" height="446" viewBox="0 0 469 446" fill="none" xmlns="http://www.w3.org/2000/svg">
  <g transform="translate(0.5 0.5)">
    <path d="M0 85L193.5 0L231 41L275 0L468 85L468 172.5L386.5 210L386.5 144.5L275 98.2752L275 190.5L245.5 226L275 261L275 350L386.5 307.5L386.5 243L468 282L468 359.753L275 445L231 402.5L193.5 444.885L0 363.401L0 258.81L31.5 226L0 198.002L0 85Z" fill="none" stroke-width="1" stroke="#808080" />
    <path d="M0 45L101 0L101 84L0 87.6648L0 45Z" fill="none" stroke-width="1" stroke="#808080" transform="translate(99 108)" />
    <path d="M0 0L0 44L101 91L101 7.29706L0 0Z" fill="none" stroke-width="1" stroke="#808080" transform="translate(99 273.5)" />
  </g>
</svg>